<?xml version="1.0" encoding="utf-8"?>
<!-- Generator: Adobe Illustrator 16.0.0, SVG Export Plug-In . SVG Version: 6.00 Build 0)  -->
<!DOCTYPE svg PUBLIC "-//W3C//DTD SVG 1.1//EN" "http://www.w3.org/Graphics/SVG/1.1/DTD/svg11.dtd">
<svg version="1.1" id="Layer_1" xmlns="http://www.w3.org/2000/svg" xmlns:xlink="http://www.w3.org/1999/xlink" x="0px" y="0px"
	 width="796.5px" height="796.5px" viewBox="137 140 796.5 796.5" enable-background="new 137 140 796.5 796.5"
	 xml:space="preserve">
<g>
	<g>
		<g>
			<rect x="363.25" y="594" fill="#EA3323" width="115" height="115"/>
			<rect x="363.25" y="480" fill="#EA3323" width="115" height="115"/>
			<rect x="249.5" y="480" fill="#EA3323" width="115" height="115"/>
			<rect x="249.5" y="366.25" fill="#EA3323" width="115" height="115"/>
			<rect x="363.25" y="366.25" fill="#EA3323" width="115" height="115"/>
			<rect x="363.25" y="252.5" fill="#EA3323" width="115" height="115"/>
			<rect x="477" y="366.25" fill="#EA3323" width="115" height="115"/>
			<rect x="591" y="252.5" fill="#EA3323" width="115" height="115"/>
			<rect x="704.75" y="252.5" fill="#EA3323" width="115" height="115"/>
			<rect x="704.75" y="366.25" fill="#EA3323" width="115" height="115"/>
			<rect x="818.5" y="480" width="115" height="115"/>
			<rect x="818.5" y="366.25" width="115" height="115"/>
			<rect x="818.5" y="252.5" width="115" height="115"/>
			<rect x="704.75" y="594" width="115" height="115"/>
			<rect x="704.75" y="480" fill="#80180F" width="115" height="115"/>
			<rect x="704.75" y="140" width="115" height="115"/>
			<rect x="591" y="707.75" width="115" height="115"/>
			<rect x="591" y="594" fill="#80180F" width="115" height="115"/>
			<rect x="591" y="480" fill="#EA3323" width="115" height="115"/>
			<rect x="591" y="366.25" fill="#EA3323" width="115" height="115"/>
			<rect x="591" y="140" width="115" height="115"/>
			<rect x="477" y="821.5" width="115" height="115"/>
			<rect x="477" y="707.75" fill="#80180F" width="115" height="115"/>
			<rect x="477" y="594" fill="#EA3323" width="115" height="115"/>
			<rect x="477" y="480" fill="#EA3323" width="115" height="115"/>
			<rect x="477" y="252.5" width="115" height="115"/>
			<rect x="363.25" y="707.75" width="115" height="115"/>
			<rect x="363.25" y="140" width="115" height="115"/>
			<rect x="249.5" y="594" width="115" height="115"/>
			<rect x="249.5" y="252.5" fill="#FFFFFF" width="115" height="115"/>
			<rect x="249.5" y="140" width="115" height="115"/>
			<rect x="137" y="480" width="115" height="115"/>
			<rect x="137" y="366.25" width="115" height="115"/>
			<rect x="137" y="252.5" width="115" height="115"/>
		</g>
	</g>
</g>
</svg>
