<?xml version="1.0" encoding="utf-8"?>
<!-- Generator: Adobe Illustrator 16.0.0, SVG Export Plug-In . SVG Version: 6.00 Build 0)  -->
<!DOCTYPE svg PUBLIC "-//W3C//DTD SVG 1.1//EN" "http://www.w3.org/Graphics/SVG/1.1/DTD/svg11.dtd">
<svg version="1.1" id="Layer_1" xmlns="http://www.w3.org/2000/svg" xmlns:xlink="http://www.w3.org/1999/xlink" x="0px" y="0px"
	 width="796.5px" height="796.5px" viewBox="0 0 796.5 796.5" enable-background="new 0 0 796.5 796.5" xml:space="preserve">
<g opacity="0.25">
	<g>
		<g>
			<rect x="226.25" y="454" fill="#EA3323" width="115" height="115"/>
			<rect x="226.25" y="340" fill="#EA3323" width="115" height="115"/>
			<rect x="112.5" y="340" fill="#EA3323" width="115" height="115"/>
			<rect x="112.5" y="226.25" fill="#EA3323" width="115" height="115"/>
			<rect x="226.25" y="226.25" fill="#EA3323" width="115" height="115"/>
			<rect x="226.25" y="112.5" fill="#EA3323" width="115" height="115"/>
			<rect x="340" y="226.25" fill="#EA3323" width="115" height="115"/>
			<rect x="454" y="112.5" fill="#EA3323" width="115" height="115"/>
			<rect x="567.75" y="112.5" fill="#EA3323" width="115" height="115"/>
			<rect x="567.75" y="226.25" fill="#EA3323" width="115" height="115"/>
			<rect x="681.5" y="340" width="115" height="115"/>
			<rect x="681.5" y="226.25" width="115" height="115"/>
			<rect x="681.5" y="112.5" width="115" height="115"/>
			<rect x="567.75" y="454" width="115" height="115"/>
			<rect x="567.75" y="340" fill="#80180F" width="115" height="115"/>
			<rect x="567.75" width="115" height="115"/>
			<rect x="454" y="567.75" width="115" height="115"/>
			<rect x="454" y="454" fill="#80180F" width="115" height="115"/>
			<rect x="454" y="340" fill="#EA3323" width="115" height="115"/>
			<rect x="454" y="226.25" fill="#EA3323" width="115" height="115"/>
			<rect x="454" width="115" height="115"/>
			<rect x="340" y="681.5" width="115" height="115"/>
			<rect x="340" y="567.75" fill="#80180F" width="115" height="115"/>
			<rect x="340" y="454" fill="#EA3323" width="115" height="115"/>
			<rect x="340" y="340" fill="#EA3323" width="115" height="115"/>
			<rect x="340" y="112.5" width="115" height="115"/>
			<rect x="226.25" y="567.75" width="115" height="115"/>
			<rect x="226.25" width="115" height="115"/>
			<rect x="112.5" y="454" width="115" height="115"/>
			<rect x="112.5" y="112.5" fill="#FFFFFF" width="115" height="115"/>
			<rect x="112.5" width="115" height="115"/>
			<rect y="340" width="115" height="115"/>
			<rect y="226.25" width="115" height="115"/>
			<rect y="112.5" width="115" height="115"/>
		</g>
	</g>
</g>
</svg>
